<svg width="56" height="56" viewBox="0 0 56 56" fill="none" xmlns="http://www.w3.org/2000/svg">
<circle cx="28" cy="28" r="28" fill="white" fill-opacity="0.8"/>
<path d="M28 3C34.9036 3 41.153 5.79818 45.6774 10.3226C50.2018 14.847 53 21.0964 53 28C53 34.9036 50.2018 41.153 45.6774 45.6774C41.153 50.2018 34.9023 53 28 53C21.0964 53 14.847 50.2018 10.3226 45.6774C5.79818 41.153 3 34.9023 3 28C3 21.0964 5.79818 14.847 10.3226 10.3226C14.847 5.79818 21.0964 3 28 3V3ZM43.7566 12.2434C39.7246 8.21139 34.1541 5.71656 28 5.71656C21.8459 5.71656 16.2754 8.21139 12.2434 12.2434C8.21139 16.2754 5.71656 21.8459 5.71656 28C5.71656 34.1541 8.21139 39.7246 12.2434 43.7566C16.2754 47.7886 21.8459 50.2834 28 50.2834C34.1541 50.2834 39.7246 47.7886 43.7566 43.7566C47.7886 39.7246 50.2834 34.1541 50.2834 28C50.2834 21.8459 47.7886 16.2754 43.7566 12.2434V12.2434Z" fill="#285CA6"/>
<path fill-rule="evenodd" clip-rule="evenodd" d="M20.8678 46.8446C20.8678 45.9699 21.4895 45.1537 22.3383 45.1537H25.2059V41.1829H30.7941V45.1537H33.6617C34.8465 45.1537 35.1322 46.295 35.1322 47.2853H20.8678V46.8446V46.8446ZM20.1319 25.5229H35.8667C35.8667 26.2207 35.7157 26.788 35.6464 27.4341C35.4083 29.6215 34.9227 32.8781 34.5948 35.1322C34.5105 35.7158 34.4479 36.4708 34.3201 37.0639C34.0834 38.1589 33.1611 38.9792 31.8239 38.9792H24.1775C22.8539 38.9792 21.9398 38.1712 21.6935 37.1251C21.5507 36.5184 21.5113 35.86 21.416 35.1975C21.2528 34.0725 20.1333 26.2071 20.1333 25.5242L20.1319 25.5229ZM17.7799 22.4349C17.7799 21.6201 18.6546 20.8175 19.4708 20.8175H36.5292C37.3454 20.8175 38.2201 21.6215 38.2201 22.4349V23.243H17.7799V22.4349V22.4349ZM24.3965 16.6998V14.0526H31.6021V16.6998C31.6021 17.6657 30.907 18.5376 29.9847 18.5376H26.0139C25.127 18.5376 24.3965 17.731 24.3965 16.6998ZM20.1319 14.0526H22.1901C22.1901 15.4633 21.9996 17.4834 22.5573 18.5376C20.1156 18.5376 17.4861 18.1853 16.1162 20.4788C15.2579 21.9167 15.4986 23.5953 15.4986 25.5229H17.852C17.852 25.9799 17.9404 26.3336 17.9853 26.7118L18.2968 29.0475C18.3553 29.4596 18.4397 29.8297 18.4397 30.3017H16.6753C16.6753 28.891 15.4973 27.328 14.1247 26.7499C13.6717 26.5594 13.0242 26.4057 12.4107 26.4057V28.6856C13.0215 28.6856 13.401 28.8081 13.839 29.242L13.9451 29.3563C14.6498 30.1357 14.4689 31.3165 14.4689 32.5816H18.8069C18.8069 33.3597 19.4558 37.5876 19.6054 38.0324C20.1006 39.5002 21.7031 41.0101 22.9246 41.0374V42.8751C21.5752 42.8751 20.7685 43.1159 19.8911 43.8859C19.381 44.3348 18.66 45.4802 18.66 46.4038V49.4918H37.3359C37.3359 47.2935 37.6882 45.3414 36.1429 43.9212C35.2859 43.1322 34.4248 42.8751 33.0713 42.8751V41.0374C34.3201 41.0101 35.864 39.4961 36.3701 38.0868C36.6217 37.3862 36.7115 36.2395 36.8339 35.3893L37.189 32.583H41.527C41.527 31.0716 41.274 29.6855 42.569 28.9196C42.9309 28.7047 43.1662 28.687 43.5866 28.687V26.4071C41.9256 26.4071 40.4605 27.3688 39.7872 28.7101C39.5831 29.1168 39.322 29.7317 39.322 30.3044H37.5576C37.5576 29.4991 38.1453 26.3581 38.1453 25.5256H40.4986C40.4986 22.7193 40.9244 20.6665 38.4554 19.1144C37.2502 18.3553 35.3566 18.5417 33.4399 18.5417C34.0031 17.3691 33.8072 15.598 33.8072 14.0567H35.8654V11.8503H20.1305V14.0567L20.1319 14.0526Z" fill="#285CA6"/>
<path fill-rule="evenodd" clip-rule="evenodd" d="M24.8386 32.5815H26.8968V36.9931H29.1032V32.5815H31.1614V30.3016H24.8386V32.5815Z" fill="#285CA6"/>
</svg>
