<svg width="56" height="56" viewBox="0 0 56 56" fill="none" xmlns="http://www.w3.org/2000/svg">
<circle cx="28" cy="28" r="28" fill="white" fill-opacity="0.8"/>
<g clip-path="url(#clip0_569_15)">
<path fill-rule="evenodd" clip-rule="evenodd" d="M21.3893 44.5645C21.3893 43.9387 21.7191 43.6089 22.3449 43.6089H33.6684C34.2942 43.6089 34.624 43.9387 34.624 44.5645V48.019H21.3893V44.5645ZM18.4464 19.5666V14.2727C18.4464 13.6469 18.7762 13.3171 19.402 13.3171H36.6071C37.2329 13.3171 37.5627 13.6469 37.5627 14.2727C37.5627 20.0571 38.0489 23.8922 34.8016 28.5687L34.1631 29.3974C32.366 31.4989 31.2244 31.9091 30.3068 32.89C29.9009 33.3256 29.4823 34.2516 29.4823 35.0803V40.0782C29.4823 40.7082 30.5944 40.704 30.8608 40.8351C31.4992 41.1395 31.5796 41.6723 31.6895 42.1374H24.3364C24.4464 41.6681 24.5225 41.1437 25.1652 40.8351C25.4147 40.7167 26.5436 40.7125 26.5436 40.0782V35.0803C26.5436 34.2727 26.1419 33.3636 25.7529 32.9281C25.1271 32.2262 24.8354 32.167 24.1377 31.6004C22.9665 30.6448 22.1419 29.8456 21.2455 28.611C20.4929 27.5708 19.7022 26.0782 19.2498 24.7251C18.7593 23.2537 18.4506 21.5454 18.4506 19.5666H18.4464ZM38.3703 24.7886C38.3787 24.4587 38.476 24.2389 38.5605 23.9471C38.7508 23.2875 38.9707 21.8118 39.0299 21.1057C39.1356 19.816 39.0341 18.0401 39.0341 16.6998C41.6345 16.6998 42.2561 16.2389 41.8417 19.0676C41.7529 19.6765 41.6726 20.074 41.5373 20.5983C41.0553 22.4376 40.0278 23.9133 38.3745 24.7886H38.3703ZM17.6345 24.7886C15.9897 23.9175 14.9834 22.4757 14.4887 20.6575C14.3449 20.1289 14.2603 19.7146 14.1758 19.1311C13.7741 16.2981 14.2138 16.6998 16.9749 16.6998C16.9749 19.1268 16.7846 21.537 17.4316 23.8922C17.5035 24.1543 17.6303 24.4418 17.6345 24.7886ZM16.9749 13.833V15.2283H14.5479C13.6219 15.2283 12.5605 16.2854 12.5605 17.2156C12.5605 18.907 12.6578 20.0105 13.1737 21.5285C13.994 23.9218 15.6134 25.8287 18.087 26.6152C18.5605 26.7674 18.4464 26.7801 18.81 27.5116C19.846 29.5962 21.3555 31.2917 23.1314 32.7505C24.0109 33.4735 24.7973 33.6385 25.0214 35.0507C25.1779 36.0359 25.0595 38.1543 25.0595 39.2748C24.2477 39.4651 23.4696 40.1374 23.1187 40.8647C22.8988 41.3171 22.8523 41.6723 22.8523 42.1416H21.8967C20.9707 42.1416 19.9136 43.1987 19.9136 44.1289V48.907C19.9136 49.1226 20.2857 49.4947 20.5014 49.4947H35.4992C35.7149 49.4947 36.087 49.1226 36.087 48.907V44.1289C36.087 43.2029 35.0299 42.1416 34.1039 42.1416H33.1483C33.1483 40.6363 32.0912 39.5412 30.9411 39.2748C30.9411 37.2917 30.5436 34.7294 31.6557 33.6638C32.1927 33.148 33.1018 32.6575 34.4887 31.279C35.4147 30.3573 36.5944 28.7167 37.1652 27.5581C37.7064 26.463 37.3597 26.8012 38.1927 26.5264C39.0806 26.2304 40.1715 25.5243 40.8142 24.8816C42.8142 22.8816 43.44 20.0486 43.44 17.2156C43.44 16.2896 42.383 15.2283 41.457 15.2283H39.0299V13.833C39.0299 12.907 37.9728 11.8456 37.0426 11.8456H18.9538C18.0278 11.8456 16.9665 12.9027 16.9665 13.833H16.9749Z" fill="#3681C3"/>
<path fill-rule="evenodd" clip-rule="evenodd" d="M24.476 21.2579C24.9496 21.2579 26.624 21.0676 26.9242 20.7632C27.0806 20.6067 27.8713 19.0127 27.9305 18.7547C28.2857 19.0169 28.5014 20.1078 28.9876 20.7125C29.2456 21.038 29.6515 21.0211 30.087 21.0846C30.5437 21.148 31.0088 21.2537 31.4612 21.2537C31.1145 21.7738 30.273 22.3277 29.9432 22.8266C29.5669 23.3974 30.1166 24.4841 30.1377 25.3721C29.0214 25.1141 28.4126 23.9429 27.3301 24.6194L25.7995 25.3721C25.8967 24.9577 25.9517 24.5137 26.0405 24.0655C26.4126 22.1712 25.4697 22.7378 24.476 21.2537V21.2579ZM24.5479 23.537L24.2012 25.833C24.1462 26.1078 24.0024 26.6955 24.0574 26.9619C24.1208 27.2706 24.4802 27.5793 24.772 27.5793C25.2752 27.5793 27.6472 26.0359 28.0067 26.0359C28.0997 26.0359 29.3555 26.7082 29.5754 26.8182C29.8967 26.9831 30.8312 27.5793 31.1652 27.5793C31.4781 27.5793 31.9009 27.2199 31.9009 26.9196C31.9009 26.3953 31.7445 25.7695 31.6599 25.2495C31.3174 23.2072 31.0384 23.6469 32.6874 22.2643C32.9623 22.0359 33.884 21.1903 33.884 20.8139C33.884 19.8457 32.4845 19.8922 31.1018 19.6977C29.8756 19.5243 30.0743 19.7399 29.588 18.5645C29.4527 18.2347 29.3132 17.9894 29.1525 17.6765C28.8861 17.1395 28.6324 16.2558 27.9263 16.2558C27.4062 16.2558 27.1821 16.9323 27.0215 17.2621L26.0447 19.2283C25.8713 19.5877 25.9179 19.5412 25.4739 19.6131C24.8692 19.7103 22.5436 19.8964 22.2477 20.2854C21.8883 20.7632 22.1716 21.2706 22.5479 21.5666C22.7635 21.7357 24.5436 23.4101 24.5436 23.5412L24.5479 23.537Z" fill="#3681C3"/>
<path fill-rule="evenodd" clip-rule="evenodd" d="M24.328 45.6681C24.328 46.074 24.4971 46.5518 24.9157 46.5518H28.1504C28.569 46.5518 28.7382 46.074 28.7382 45.6681C28.7382 45.4524 28.3661 45.0803 28.1504 45.0803H24.9157C24.7001 45.0803 24.328 45.4524 24.328 45.6681Z" fill="#3681C3"/>
<path fill-rule="evenodd" clip-rule="evenodd" d="M30.2096 45.668C30.2096 47.0253 31.6811 46.5814 31.6811 45.964C31.6811 44.6067 30.2096 45.0507 30.2096 45.668Z" fill="#3681C3"/>
<path fill-rule="evenodd" clip-rule="evenodd" d="M39.402 47.2875H39.6218V47.2114H39.402V47.2875Z" fill="#3681C3"/>
<path d="M28.0021 3C34.907 3 41.1564 5.79915 45.6808 10.3235C50.2051 14.8478 53.0042 21.0973 53.0042 28.0021C53.0042 34.907 50.2051 41.1564 45.6808 45.6808C41.1564 50.2051 34.907 53.0042 28.0021 53.0042C21.0972 53.0042 14.8478 50.2051 10.3235 45.6808C5.79915 41.1564 3 34.907 3 28.0021C3 21.0973 5.79915 14.8478 10.3235 10.3235C14.8478 5.79915 21.0972 3 28.0021 3V3ZM43.7611 12.2431C39.7273 8.2093 34.1586 5.71459 28.0021 5.71459C21.8499 5.71459 16.277 8.2093 12.2474 12.2431C8.21353 16.277 5.71882 21.8457 5.71882 27.9979C5.71882 34.1501 8.21353 39.723 12.2474 43.7569C16.2812 47.7907 21.8499 50.2854 28.0021 50.2854C34.1543 50.2854 39.7273 47.7907 43.7611 43.7569C47.7949 39.723 50.2896 34.1543 50.2896 27.9979C50.2896 21.8457 47.7949 16.2727 43.7611 12.2431Z" fill="#3681C3"/>
</g>
<defs>
<clipPath id="clip0_569_15">
<rect width="50" height="50" fill="white" transform="translate(3 3)"/>
</clipPath>
</defs>
</svg>
